<?xml version="1.0" encoding="utf-8"?>
<!-- Generator: Adobe Illustrator 27.6.1, SVG Export Plug-In . SVG Version: 6.00 Build 0)  -->
<svg version="1.1" id="Layer_1" xmlns="http://www.w3.org/2000/svg" xmlns:xlink="http://www.w3.org/1999/xlink" x="0px" y="0px"
	 viewBox="0 0 400 593" style="enable-background:new 0 0 400 593;" xml:space="preserve">
<style type="text/css">
	.st0{fill:none;}
	.st1{filter:url(#Adobe_OpacityMaskFilter);}
	.st2{fill-rule:evenodd;clip-rule:evenodd;fill:#FFFFFF;}
	.st3{mask:url(#c_00000059271741623304686260000017993335711186701502_);fill:url(#SVGID_1_);}
</style>
<g>
	<path class="st0" d="M16,0h368c8.8,0,16,7.2,16,16v561c0,8.8-7.2,16-16,16H16c-8.8,0-16-7.2-16-16V16C0,7.2,7.2,0,16,0z"/>
	<defs>
		<filter id="Adobe_OpacityMaskFilter" filterUnits="userSpaceOnUse" x="0" y="0" width="400" height="593">
			<feColorMatrix  type="matrix" values="1 0 0 0 0  0 1 0 0 0  0 0 1 0 0  0 0 0 1 0"/>
		</filter>
	</defs>
	
		<mask maskUnits="userSpaceOnUse" x="0" y="0" width="400" height="593" id="c_00000059271741623304686260000017993335711186701502_">
		<g class="st1">
			<path id="a_00000060717186244215828480000005361282437772010146_" class="st2" d="M16,0h368c8.8,0,16,7.2,16,16v561
				c0,8.8-7.2,16-16,16H16c-8.8,0-16-7.2-16-16V16C0,7.2,7.2,0,16,0z"/>
		</g>
	</mask>
	
		<linearGradient id="SVGID_1_" gradientUnits="userSpaceOnUse" x1="-756.375" y1="836.5902" x2="-756.83" y2="835.5902" gradientTransform="matrix(400 0 0 -593 302841 496098)">
		<stop  offset="0" style="stop-color:#FF6A3A"/>
		<stop  offset="1" style="stop-color:#FF527B"/>
	</linearGradient>
	<path class="st3" d="M0,0h400v593H0V0z"/>
</g>
</svg>
