<?xml version="1.0" encoding="utf-8"?>
<!-- Generator: Adobe Illustrator 27.6.1, SVG Export Plug-In . SVG Version: 6.00 Build 0)  -->
<svg version="1.1" id="Layer_1" xmlns="http://www.w3.org/2000/svg" xmlns:xlink="http://www.w3.org/1999/xlink" x="0px" y="0px"
	 viewBox="0 0 241 289.2" style="enable-background:new 0 0 241 289.2;" xml:space="preserve">
<style type="text/css">
	.st0{filter:url(#Adobe_OpacityMaskFilter);}
	.st1{fill-rule:evenodd;clip-rule:evenodd;fill:#FFFFFF;}
	.st2{mask:url(#c_00000095340497947553317310000000173525533896834493_);}
	.st3{fill:#242742;}
	.st4{fill:url(#g_00000031191353028216080660000010448960277791778219_);}
	.st5{fill:url(#i_00000127755917349669546830000017117477123576258727_);}
	.st6{filter:url(#Adobe_OpacityMaskFilter_00000071547796560727941340000002466174908544634508_);}
	.st7{mask:url(#l_00000113329145051077003220000013594212439436141474_);fill:url(#SVGID_1_);}
	.st8{filter:url(#Adobe_OpacityMaskFilter_00000146489570577682688000000018162233819131654284_);}
	
		.st9{mask:url(#l_00000011728753443443118110000015243219250774898621_);fill:url(#SVGID_00000157282636500081358470000000140953855848276139_);}
</style>
<g>
	<defs>
		<filter id="Adobe_OpacityMaskFilter" filterUnits="userSpaceOnUse" x="-197.6" y="-177.4" width="569.6" height="594.6">
			<feColorMatrix  type="matrix" values="1 0 0 0 0  0 1 0 0 0  0 0 1 0 0  0 0 0 1 0"/>
		</filter>
	</defs>
	
		<mask maskUnits="userSpaceOnUse" x="-197.6" y="-177.4" width="569.6" height="594.6" id="c_00000095340497947553317310000000173525533896834493_">
		<g class="st0">
			<path id="a_00000108300155025764458910000006426035938866304951_" class="st1" d="M16-210.8h368c8.8,0,16,7.2,16,16v561
				c0,8.8-7.2,16-16,16H16c-8.8,0-16-7.2-16-16v-561C0-203.7,7.2-210.8,16-210.8z"/>
		</g>
	</mask>
	<g class="st2">
		<g transform="translate(-192 211)">
			<g>
				<path id="e_00000168799429873976211500000000210598761621797278_" class="st3" d="M0-184.8c0-14.4,11.6-26,26-26h381
					c14.4,0,26,11.6,26,26v237c0,14.4-11.6,26-26,26H26c-14.4,0-26-11.6-26-26V-184.8z"/>
			</g>
		</g>
		<g transform="translate(-176 226)">
			<g>
				<g>
					
						<linearGradient id="g_00000070828521645329988070000012535581426267892376_" gradientUnits="userSpaceOnUse" x1="-580.9104" y1="398.8801" x2="-580.1423" y2="398.4565" gradientTransform="matrix(401 0 0 -259 233024 103185.2812)">
						<stop  offset="0" style="stop-color:#FF3E83"/>
						<stop  offset="1" style="stop-color:#FF9F2E"/>
					</linearGradient>
					
						<path id="g_00000148639896138634755920000003334994319600884126_" style="fill:url(#g_00000070828521645329988070000012535581426267892376_);" d="
						M0-199.8c0-6.1,4.9-11,11-11h379c6.1,0,11,4.9,11,11v237c0,6.1-4.9,11-11,11H11c-6.1,0-11-4.9-11-11V-199.8z"/>
				</g>
			</g>
			<g>
				<g>
					
						<linearGradient id="i_00000041295361802487962130000014476845607201691278_" gradientUnits="userSpaceOnUse" x1="-580.9104" y1="398.8801" x2="-580.1423" y2="398.4565" gradientTransform="matrix(401 0 0 -259 233024 103185.2812)">
						<stop  offset="0" style="stop-color:#FF3E83"/>
						<stop  offset="1" style="stop-color:#FF9F2E"/>
					</linearGradient>
					
						<path id="i_00000084494152865519053690000001884801023345184923_" style="fill:url(#i_00000041295361802487962130000014476845607201691278_);" d="
						M0-199.8c0-6.1,4.9-11,11-11h379c6.1,0,11,4.9,11,11v237c0,6.1-4.9,11-11,11H11c-6.1,0-11-4.9-11-11V-199.8z"/>
				</g>
			</g>
			<defs>
				
					<filter id="Adobe_OpacityMaskFilter_00000086652614187216306550000006811923433999797648_" filterUnits="userSpaceOnUse" x="232" y="-124.8" width="316" height="316">
					<feColorMatrix  type="matrix" values="1 0 0 0 0  0 1 0 0 0  0 0 1 0 0  0 0 0 1 0"/>
				</filter>
			</defs>
			
				<mask maskUnits="userSpaceOnUse" x="232" y="-124.8" width="316" height="316" id="l_00000113329145051077003220000013594212439436141474_">
				<g style="filter:url(#Adobe_OpacityMaskFilter_00000086652614187216306550000006811923433999797648_);">
					<path id="i_00000005229780650419631610000013456093979165860992_" class="st1" d="M0-199.8c0-6.1,4.9-11,11-11h379
						c6.1,0,11,4.9,11,11v237c0,6.1-4.9,11-11,11H11c-6.1,0-11-4.9-11-11V-199.8z"/>
				</g>
			</mask>
			
				<linearGradient id="SVGID_1_" gradientUnits="userSpaceOnUse" x1="-580.0981" y1="399.3821" x2="-580.0981" y2="398.3821" gradientTransform="matrix(316 0 0 -316 183701 126079.8906)">
				<stop  offset="0" style="stop-color:#FFB443"/>
				<stop  offset="1" style="stop-color:#FF5B64;stop-opacity:0"/>
			</linearGradient>
			<circle class="st7" cx="390" cy="33.2" r="158"/>
			<defs>
				
					<filter id="Adobe_OpacityMaskFilter_00000078024678965622319370000017027927586018722958_" filterUnits="userSpaceOnUse" x="-21.6" y="-403.4" width="316" height="316">
					<feColorMatrix  type="matrix" values="1 0 0 0 0  0 1 0 0 0  0 0 1 0 0  0 0 0 1 0"/>
				</filter>
			</defs>
			
				<mask maskUnits="userSpaceOnUse" x="-21.6" y="-403.4" width="316" height="316" id="l_00000011728753443443118110000015243219250774898621_">
				<g style="filter:url(#Adobe_OpacityMaskFilter_00000078024678965622319370000017027927586018722958_);">
					<path id="i_00000092433222224712161890000002668416272830120067_" class="st1" d="M0-199.8c0-6.1,4.9-11,11-11h379
						c6.1,0,11,4.9,11,11v237c0,6.1-4.9,11-11,11H11c-6.1,0-11-4.9-11-11V-199.8z"/>
				</g>
			</mask>
			
				<linearGradient id="SVGID_00000103253158501665682900000005656514221894783156_" gradientUnits="userSpaceOnUse" x1="-584.7421" y1="398.9964" x2="-584.7421" y2="397.9964" gradientTransform="matrix(-223.4457 -223.4457 -223.4457 223.4457 -41479.3672 -219945.875)">
				<stop  offset="0" style="stop-color:#FFB443"/>
				<stop  offset="1" style="stop-color:#FF5B64;stop-opacity:0"/>
			</linearGradient>
			
				<circle style="mask:url(#l_00000011728753443443118110000015243219250774898621_);fill:url(#SVGID_00000103253158501665682900000005656514221894783156_);" cx="136.4" cy="-245.4" r="158"/>
		</g>
	</g>
</g>
</svg>
